<?xml version="1.0" standalone="no"?>
<!DOCTYPE svg PUBLIC "-//W3C//DTD SVG 20010904//EN"
 "http://www.w3.org/TR/2001/REC-SVG-20010904/DTD/svg10.dtd">
<svg version="1.0" xmlns="http://www.w3.org/2000/svg"
 width="1688.000000pt" height="1688.000000pt" viewBox="0 0 1688.000000 1688.000000"
 preserveAspectRatio="xMidYMid meet">
<metadata>
Created by potrace 1.14, written by Peter Selinger 2001-2017
</metadata>
<g transform="translate(0.000000,1688.000000) scale(0.100000,-0.100000)"
fill="#000000" stroke="none">
<path d="M0 8664 c0 -2087 2 -2495 13 -2485 8 6 16 8 20 5 4 -5 283 -8 305 -3
4 1 12 0 17 -1 10 -2 29 -2 246 -1 l106 1 0 645 c0 620 1 647 19 664 16 15
269 274 781 797 50 52 95 94 101 94 5 0 17 -10 25 -22 8 -13 30 -39 48 -59 19
-20 52 -58 74 -84 22 -26 54 -62 70 -80 17 -18 43 -48 59 -66 43 -52 129 -151
146 -169 8 -9 40 -45 70 -81 30 -35 57 -66 60 -69 3 -3 30 -34 60 -70 52 -61
102 -119 125 -144 6 -6 39 -45 75 -86 35 -41 69 -80 74 -86 6 -6 28 -31 50
-57 21 -25 52 -61 68 -79 16 -18 44 -50 61 -71 18 -21 47 -55 65 -75 18 -20
52 -59 75 -86 23 -27 56 -64 74 -83 17 -18 29 -33 27 -33 -2 0 4 -8 14 -18 9
-10 42 -47 72 -82 30 -35 62 -71 70 -80 17 -19 107 -123 136 -158 10 -13 35
-41 54 -62 19 -21 53 -59 75 -86 22 -26 54 -62 70 -80 31 -33 96 -110 106
-126 4 -7 311 -14 344 -7 6 1 14 0 20 -1 5 -1 104 -1 220 0 115 1 218 1 228 1
11 0 15 5 11 12 -8 12 -84 108 -94 117 -3 3 -39 46 -79 95 -41 50 -78 92 -82
93 -5 2 -9 8 -9 14 0 5 -6 15 -13 22 -7 8 -29 33 -48 56 -18 23 -39 47 -44 54
-6 6 -30 36 -55 66 -25 30 -51 61 -58 68 -7 8 -25 30 -40 50 -15 21 -29 39
-32 42 -3 3 -37 43 -75 90 -38 47 -74 90 -80 97 -21 25 -36 43 -81 100 -26 32
-54 66 -63 75 -9 9 -26 30 -38 45 -22 29 -131 163 -161 198 -24 28 -111 134
-152 185 -19 24 -40 48 -45 54 -9 9 -55 66 -155 190 -8 10 -20 23 -25 30 -6 6
-51 61 -100 121 -49 61 -92 112 -95 115 -3 3 -24 27 -45 55 -22 27 -44 55 -50
61 -5 7 -26 31 -45 55 -31 39 -219 266 -245 296 -5 7 -14 18 -20 25 -5 7 -30
38 -55 68 -25 30 -52 63 -60 73 -8 11 -30 35 -47 56 -51 57 -51 63 14 132 32
34 78 83 103 109 115 121 301 319 335 355 72 77 270 288 305 325 38 39 264
279 325 345 34 36 226 240 315 335 19 20 91 97 160 170 69 74 141 150 160 170
19 20 89 94 155 164 66 71 135 143 152 162 l33 34 -406 0 -405 0 -57 -59 c-31
-32 -136 -141 -232 -241 -258 -268 -322 -335 -530 -550 -103 -107 -218 -227
-256 -267 -111 -115 -413 -429 -494 -513 -41 -42 -154 -159 -250 -260 -96
-100 -218 -226 -270 -280 -52 -54 -161 -168 -242 -252 -360 -377 -348 -365
-349 -332 0 16 -1 642 -1 1392 l-1 1362 -353 0 -354 0 0 -2496z"/>
<path d="M15087 10004 c-1 -1 -42 -5 -92 -8 -149 -11 -242 -23 -330 -42 -16
-4 -39 -8 -50 -9 -11 -2 -40 -8 -65 -15 -25 -7 -49 -13 -55 -14 -175 -36 -469
-156 -634 -259 -110 -69 -199 -137 -197 -150 1 -6 6 -19 11 -27 14 -22 61
-108 91 -165 14 -27 35 -68 48 -90 12 -22 44 -80 70 -130 26 -49 49 -92 51
-93 3 -4 65 37 75 49 13 15 188 114 272 153 125 59 346 133 453 152 318 56
549 53 805 -11 127 -32 277 -119 369 -214 158 -164 223 -362 224 -689 0 -39
-2 -75 -5 -78 -9 -9 -338 -10 -338 -1 0 5 -5 5 -11 2 -9 -6 -524 -10 -554 -4
-5 1 -14 1 -19 0 -5 -1 -99 -4 -210 -6 -110 -3 -214 -6 -231 -9 -16 -2 -61 -6
-98 -10 -37 -4 -78 -9 -90 -12 -12 -2 -33 -6 -47 -9 -58 -11 -74 -15 -162 -39
-118 -32 -295 -102 -318 -126 -3 -3 -22 -14 -42 -25 -21 -11 -38 -22 -38 -26
0 -3 -11 -11 -24 -17 -38 -17 -164 -140 -211 -207 -41 -57 -105 -179 -117
-221 -50 -174 -62 -252 -62 -394 1 -67 10 -179 19 -220 14 -61 38 -137 46
-144 5 -6 9 -18 9 -27 0 -17 53 -123 88 -178 60 -92 244 -275 302 -299 8 -3
30 -17 49 -29 86 -59 306 -144 436 -169 176 -34 224 -39 445 -38 226 0 307 8
494 49 139 30 319 107 450 193 87 56 266 234 266 264 0 4 4 8 8 8 5 0 8 -110
8 -244 l-1 -245 78 -3 c44 -2 81 0 84 5 2 4 9 5 14 1 11 -7 456 -7 467 0 8 5
7 2403 -1 2501 -6 72 -16 135 -33 215 -3 14 -7 36 -10 50 -7 33 -43 160 -54
185 -94 236 -227 417 -400 549 -71 54 -154 106 -168 106 -7 0 -12 5 -12 10 0
6 -9 10 -20 10 -11 0 -20 5 -20 10 0 6 -7 10 -15 10 -9 0 -26 6 -38 14 -46 29
-263 94 -382 115 -132 23 -165 27 -285 37 -69 5 -289 11 -293 8z m1061 -2408
l-1 -273 -46 -92 c-25 -50 -54 -100 -63 -111 -10 -11 -18 -24 -18 -29 0 -14
-144 -156 -204 -201 -86 -63 -263 -145 -356 -165 -8 -2 -37 -8 -63 -14 -171
-40 -494 -33 -677 14 -38 9 -43 11 -73 23 -16 7 -32 12 -37 12 -5 0 -31 12
-57 27 -161 89 -246 184 -293 328 -18 55 -20 66 -23 177 -6 198 76 349 243
448 63 38 184 84 245 94 17 2 30 5 30 6 0 2 29 6 99 14 33 3 61 8 64 10 2 2
280 5 618 5 l614 1 -2 -274z"/>
<path d="M5749 9944 c-16 -24 -28 -44 -25 -44 3 0 -9 -24 -28 -52 -18 -29 -44
-73 -58 -98 -14 -25 -35 -63 -48 -85 -13 -22 -33 -58 -45 -80 -13 -22 -56 -96
-95 -165 -40 -69 -82 -143 -95 -165 -12 -22 -31 -57 -43 -78 -12 -21 -41 -71
-63 -110 -23 -40 -49 -85 -59 -102 -48 -82 -136 -236 -163 -285 -16 -30 -33
-59 -37 -65 -4 -5 -19 -30 -32 -55 -14 -25 -42 -74 -62 -108 -20 -35 -36 -68
-36 -73 0 -5 -4 -9 -9 -9 -24 0 -33 -78 -31 -264 5 -527 9 -943 10 -1142 l1
-220 66 -40 c36 -21 82 -48 102 -59 71 -40 136 -79 141 -85 3 -3 23 -14 45
-26 22 -11 125 -71 229 -132 104 -62 193 -112 197 -112 5 0 9 -3 9 -8 0 -4 21
-18 48 -32 26 -14 83 -47 127 -73 44 -27 96 -58 115 -68 19 -11 49 -28 65 -38
17 -10 46 -27 66 -39 67 -37 83 -47 93 -55 20 -15 248 -147 254 -147 3 0 20
-11 39 -26 18 -14 33 -22 33 -19 0 3 20 -8 45 -25 25 -17 53 -32 63 -33 9 0
54 21 99 48 l81 49 1 742 0 742 32 59 c18 32 35 60 39 63 3 3 12 19 20 35 8
17 45 83 82 147 38 65 68 120 68 122 0 3 21 40 48 83 26 44 48 86 50 94 2 7 7
16 11 19 4 3 69 115 145 250 160 282 173 306 215 380 18 30 39 70 48 88 9 17
20 32 23 32 3 0 143 -79 311 -176 167 -97 328 -189 357 -205 28 -16 69 -39 90
-52 l37 -24 0 -737 c0 -405 2 -736 5 -736 5 0 159 88 168 95 3 2 4 1182 2
1510 l0 50 -57 33 c-65 37 -68 39 -275 160 -82 48 -165 96 -185 108 -21 11
-117 67 -213 124 -96 56 -188 111 -205 120 -42 24 -252 146 -360 210 -108 63
-145 85 -205 118 -25 14 -69 40 -98 59 -29 18 -54 33 -56 33 -3 0 -50 27 -106
60 -56 33 -106 60 -111 60 -5 0 -9 5 -9 10 0 6 -4 10 -10 10 -5 0 -39 18 -75
40 -36 22 -67 40 -69 40 -2 0 -33 17 -67 38 -35 22 -84 50 -109 64 -25 14 -61
35 -80 47 -19 11 -42 24 -50 28 -8 4 -43 24 -78 45 -34 21 -67 38 -72 38 -6 0
-10 5 -10 10 0 6 -5 10 -11 10 -6 0 -56 27 -110 59 l-99 59 -31 -44z"/>
<path d="M10978 9985 c-2 -2 -39 -6 -83 -10 -44 -4 -91 -9 -105 -11 -14 -3
-41 -7 -60 -10 -19 -2 -45 -7 -57 -9 -13 -3 -35 -7 -50 -10 -16 -3 -37 -9 -48
-12 -11 -4 -22 -8 -25 -8 -74 -16 -122 -30 -126 -37 -3 -4 -11 -8 -19 -8 -8 0
-26 -5 -42 -12 -15 -6 -30 -12 -33 -13 -47 -16 -154 -68 -158 -77 -2 -5 -8 -8
-14 -8 -6 0 -49 -26 -96 -57 -77 -51 -192 -155 -249 -224 -34 -43 -96 -143
-96 -156 0 -7 -4 -13 -8 -13 -5 0 -62 -139 -64 -160 -1 -3 -4 -18 -8 -35 -21
-89 -29 -151 -29 -247 -1 -82 8 -197 18 -230 3 -9 6 -25 9 -35 27 -145 119
-307 234 -416 79 -74 146 -120 261 -177 47 -23 93 -46 102 -51 10 -5 26 -9 36
-9 10 0 22 -4 27 -9 9 -7 65 -26 180 -60 17 -5 46 -13 65 -17 45 -10 40 -9 75
-17 17 -4 40 -10 53 -12 12 -3 32 -7 45 -10 12 -3 38 -8 57 -11 19 -3 67 -12
106 -19 39 -8 95 -17 125 -21 30 -3 57 -8 60 -10 4 -2 24 -6 45 -9 22 -3 50
-8 62 -11 13 -3 43 -7 65 -10 23 -3 56 -9 72 -14 17 -5 50 -12 74 -15 23 -4
54 -10 67 -15 13 -5 24 -7 24 -4 0 2 8 0 18 -5 11 -6 30 -12 43 -15 55 -11
155 -48 221 -83 144 -76 218 -180 224 -317 2 -67 -12 -175 -25 -186 -3 -3 -7
-11 -9 -19 -10 -47 -121 -181 -151 -181 -5 0 -11 -4 -13 -8 -10 -26 -209 -99
-318 -117 -173 -28 -555 -28 -725 1 -30 5 -251 52 -270 57 -5 2 -21 6 -35 10
-14 4 -43 13 -65 18 -22 6 -49 15 -60 19 -11 5 -47 18 -80 30 -33 11 -73 27
-90 35 -16 8 -59 28 -95 44 -68 32 -161 82 -220 119 -19 12 -38 18 -41 14 -4
-4 -35 -61 -69 -127 -137 -264 -183 -350 -191 -360 -5 -5 -9 -17 -9 -27 0 -32
211 -159 385 -231 131 -55 394 -134 500 -151 17 -2 30 -5 30 -6 0 -1 12 -3 28
-5 15 -2 60 -8 100 -14 39 -6 95 -14 122 -18 66 -9 593 -9 670 0 54 6 112 15
155 22 50 8 110 16 112 14 2 -1 12 2 23 8 11 6 37 14 57 17 49 8 229 68 303
102 33 15 62 28 65 28 3 1 21 11 41 24 20 12 39 22 43 22 16 0 190 133 231
176 133 142 201 257 245 416 27 97 34 160 33 293 -1 249 -83 464 -229 607 -77
75 -128 118 -140 118 -6 0 -17 7 -24 15 -25 30 -284 146 -380 170 -3 1 -12 4
-20 8 -12 4 -87 24 -160 42 -36 8 -157 35 -180 39 -14 3 -34 7 -45 9 -11 3
-40 8 -65 12 -25 4 -54 9 -65 12 -11 2 -31 5 -45 8 -61 9 -87 14 -275 51 -44
9 -89 17 -100 19 -17 3 -70 16 -168 40 -9 2 -22 7 -27 10 -6 4 -23 9 -38 11
-15 3 -31 9 -36 15 -6 5 -16 9 -24 9 -30 0 -163 75 -215 121 -95 84 -136 181
-131 309 4 116 65 235 156 305 21 17 44 35 51 40 12 10 113 60 152 75 67 26
147 47 210 55 22 3 58 9 80 12 93 16 566 5 596 -13 4 -2 25 -6 46 -9 38 -5
194 -43 258 -63 95 -30 297 -124 361 -167 20 -14 40 -25 44 -25 4 0 21 26 39
58 17 31 51 93 76 137 24 44 55 100 67 125 13 25 29 51 36 58 6 7 12 17 12 22
0 5 15 35 34 66 l35 57 -22 17 c-73 57 -426 199 -564 226 -7 1 -43 10 -80 19
-37 10 -79 19 -93 21 -24 4 -48 9 -100 19 -14 3 -43 7 -65 10 -22 2 -51 7 -65
9 -67 14 -561 31 -572 21z"/>
<path d="M7585 7330 c-82 -49 -155 -94 -162 -100 -7 -5 -15 -10 -18 -10 -3 0
-23 -11 -44 -24 l-38 -24 0 -496 c0 -273 3 -499 7 -501 4 -2 28 9 54 25 26 17
50 30 53 30 4 0 14 6 22 14 9 8 32 22 51 33 19 10 81 45 137 78 l103 60 0 503
c0 276 -3 502 -7 501 -5 0 -75 -41 -158 -89z"/>
</g>
</svg>
